<?xml version="1.0" encoding="utf-8" ?><svg xmlns="http://www.w3.org/2000/svg" xmlns:xlink="http://www.w3.org/1999/xlink" width="1024" height="1024" viewBox="0 0 1024 1024"><defs><linearGradient id="gradient_0" gradientUnits="userSpaceOnUse" x1="531.35089" y1="521.71814" x2="495.31192" y2="349.82797"><stop offset="0" stop-color="#B0AECB"/><stop offset="1" stop-color="#CBCBD9"/></linearGradient></defs><path fill="url(#gradient_0)" d="M622.791 322.637C630.797 321.876 638.814 323.971 645.425 328.551C665.676 342.747 676.734 383.708 680.721 407.304C678.771 403.532 677.439 400.178 675.145 396.492C665.062 379.925 643.531 380.545 628.669 389.869C611.943 400.364 597.516 415.591 583.533 429.503C568.176 444.978 552.71 460.345 537.137 475.603C498.521 513.429 457.131 553.381 398.293 542.275C393.588 540.887 384.449 537.35 381.049 533.89C361.46 513.949 348.063 483.564 344.926 456.394C348.165 465.967 350.629 472.31 359.14 478.528C368.539 485.35 380.037 487.727 391.418 488.439C439.141 491.422 472.766 451.309 503.423 420.748L553.457 370.861C572.771 351.456 594.591 327.088 622.791 322.637Z"/><defs><linearGradient id="gradient_1" gradientUnits="userSpaceOnUse" x1="659.50098" y1="514.43427" x2="585.08264" y2="453.90186"><stop offset="0" stop-color="#5250A3"/><stop offset="1" stop-color="#7F79D7"/></linearGradient></defs><path fill="url(#gradient_1)" d="M563.392 481.577C583.981 461.69 603.872 440.688 624.675 421.019C633.47 412.704 641.789 409.736 653.928 410.606C699.975 421.085 674.765 486.881 660.022 513.51C639.363 550.824 616.809 541.966 580.087 543.119C568.444 543.453 556.22 538.421 550.14 527.982C545.973 520.986 544.87 512.583 547.092 504.749C549.954 494.432 555.371 488.238 563.392 481.577Z"/><path fill="#6360B6" d="M563.392 481.577C583.981 461.69 603.872 440.688 624.675 421.019C633.47 412.704 641.789 409.736 653.928 410.606L652.652 411.395C652.81 412.903 652.982 412.862 653.745 414.241C654.163 420.681 645.983 431.784 642.449 437.325C636.926 445.982 632 455.845 625.423 463.766C617.134 472.177 595.311 498.529 586.019 503.801C582.916 503.939 575.886 502.157 573.62 500.438C571.899 495.13 570.273 497.466 567.319 492.639C565.784 490.13 564.322 483.325 563.392 481.577Z"/><path fill="#A7A0EC" d="M493.515 312.25C506.74 312.167 522.128 311.462 532.181 321.501C544.264 333.566 542.128 352.336 530.537 363.799C526.282 368.028 520.953 371.014 515.125 372.436C502.028 375.635 472.557 374.127 458.353 374.2C443.477 374.278 427.646 374.473 412.75 374.481C401.375 374.412 376.122 376.846 368.474 368.803C354.598 354.209 377.325 319.853 393.186 315.573C410.109 311.007 428.361 312.544 445.075 312.511L493.515 312.25Z"/><path fill="#CAC8D9" d="M351.649 375.871C352.75 377.042 354.11 386.783 356.886 389.268C371.004 400.224 396.879 395.378 414.215 396.093C448.124 397.49 457.401 434.155 432.2 454.998C416.33 466.582 385.437 464.502 367.844 458.622C336.892 448.278 342.89 399.209 351.649 375.871Z"/><path fill="#A7A0EC" d="M507.078 258.213C537.414 257.003 568.747 266.024 595.232 280.649C600.825 283.737 619.014 295.272 600.845 297.276C592.04 298.248 580.636 297.604 571.556 297.595L519.125 297.547L454.971 297.753C445.919 297.711 436.598 297.774 427.547 297.444C424.955 297.206 417.901 296.406 417.665 292.825C417.269 286.822 430.031 280.446 434.153 278.251C456.708 266.33 481.599 259.491 507.078 258.213Z"/><path fill="#6360B6" d="M482.722 559.744L559.261 559.948C571.454 559.961 583.588 559.851 595.838 560.078C599.123 559.424 612.131 562.547 606.745 567.981C593.761 581.083 562.449 591.964 545.599 595.527C506.477 603.114 455.844 597.165 423.753 572.173C430.557 571.943 443.749 570.713 449.824 567.678C462.857 561.167 468.301 560.064 482.722 559.744Z"/><path fill="#FEFEFE" d="M539.489 694.558C554.588 693.77 565.24 700.583 567.588 716.315C571.084 739.737 548.235 757.532 528.014 740.897L528.026 747.625C528.066 753.888 527.957 760.289 527.914 766.564L518.028 766.586C517.308 758.991 517.605 749.75 517.541 742.007C517.35 726.518 517.334 711.028 517.492 695.539L527.281 695.533L527.971 700.439C532.6 696.73 533.8 696.076 539.489 694.558ZM545.869 737.664C555.903 733.212 560.915 723.525 556.043 713.123C554.351 709.429 551.219 706.589 547.377 705.266C544.321 704.204 541.825 704.374 538.7 704.597C533.505 707.045 530.214 709.913 528.268 715.645C526.672 720.362 527.003 725.518 529.189 729.992C532.665 736.971 538.61 738.642 545.869 737.664Z"/><path fill="#FEFEFE" d="M346.22 694.728C360.593 692.766 373.857 702.767 375.926 717.125C377.995 731.482 368.093 744.821 353.751 746.996C339.257 749.195 325.747 739.166 323.656 724.656C321.565 710.146 331.695 696.71 346.22 694.728ZM350.237 737.353C359.269 737.033 366.329 729.45 366.006 720.419C365.683 711.388 358.097 704.33 349.066 704.657C340.04 704.984 332.987 712.564 333.31 721.59C333.634 730.616 341.211 737.673 350.237 737.353Z"/><path fill="#FEFEFE" d="M304.992 675.197C308.617 675.13 311.99 675.262 315.614 675.399C315.575 692.712 315.931 726.729 315.079 744.889C315.056 745.388 313.409 745.718 312.672 745.95C310.377 746.02 308.081 746.061 305.785 746.075C301.91 742.273 297.299 734.772 294.117 730.199C285.719 718.129 278.14 704.702 269.719 692.766C270.208 698.408 270.013 706.599 270.023 712.362C270.064 723.563 270.036 734.764 269.936 745.964L259.467 746.038C258.934 722.458 259.339 698.849 259.194 675.245C262.878 675.096 266.622 675.299 270.313 675.44C277.794 685.738 284.283 695.961 291.163 706.609C294.335 711.518 301.057 722.391 304.914 726.485C304.283 709.371 304.718 692.316 304.992 675.197Z"/><path fill="#FEFEFE" d="M434.368 694.563C435.326 694.474 436.287 694.414 437.248 694.382C457.503 693.62 463.103 706.692 463.714 724.124C450.593 724.069 437.472 724.145 424.353 724.352C425.721 728.509 426.427 730.836 429.629 733.987C432.696 737.02 436.892 738.63 441.2 738.429C447.314 738.175 450.414 735.09 454.139 730.963C456.98 729.879 460.446 731.586 463.566 732.603C445.129 765.775 402.185 739.231 416.962 707.914C420.383 700.664 427.004 696.901 434.368 694.563ZM425.204 715.489L442.379 715.469L453.499 715.435C449.914 706.501 447.354 703.657 437.332 703.697C429.609 705.161 427.791 708.341 425.204 715.489Z"/><path fill="#FEFEFE" d="M627.344 719.118C628.618 710.949 630.515 704.571 637.427 699.233C647.574 691.397 664.029 692.653 671.705 703.326C676.064 709.387 676.968 717.039 677.101 724.263C663.941 724.417 650.78 724.494 637.619 724.496C639.364 729.655 641.183 734.226 646.438 736.936C649.833 738.671 653.788 738.954 657.395 737.719C661.772 736.208 664.272 733.721 667.577 730.677C670.353 731.141 673.416 731.567 676.116 732.277C673.184 738.862 669.932 742.874 662.776 745.549C656.098 748.053 648.7 747.805 642.205 744.858C635.325 741.68 631.205 736.6 628.48 729.688C627.392 725.718 627.426 723.174 627.344 719.118ZM637.988 715.513L656.25 715.464L666.818 715.468C663.864 706.342 658.889 702.753 649.111 704.108C643.758 706.071 641.461 707.718 639.008 713.122C638.653 713.913 638.313 714.71 637.988 715.513Z"/><path fill="#FEFEFE" d="M736.471 694.619C748.254 693.952 757.923 696.282 762.977 708.243C765.178 713.452 765.004 718.502 765.466 724.012C756.041 723.968 734.757 723.304 726.311 724.86C729.061 736.261 737.984 740.995 749.214 736.035C751.642 734.963 753.643 732.751 755.536 730.877C757.572 730.061 762.365 731.77 764.699 732.401C757.621 746.825 742.341 751.598 728.179 743.763C711.838 734.722 712.094 707.471 727.55 697.845C730.497 696.009 733.108 695.277 736.471 694.619ZM726.618 715.376L743.375 715.409L755.162 715.381C751.665 706.965 748.479 702.956 738.538 703.595C731.145 705.161 729.046 708.475 726.618 715.376Z"/><path fill="#FEFEFE" d="M575.41 675.398L585.587 675.441L585.524 701.474C593.593 693.975 605.699 690.827 614.77 699.3C620.946 705.07 620.754 714.287 620.681 722.192L620.567 729.649L620.433 745.904L610.448 745.977C610.254 739.523 612.262 712.04 607.159 707.151C599.004 699.337 586.285 705.905 585.714 717.978C585.322 726.293 585.5 736.725 585.579 746.039L575.528 746.018L575.41 675.398Z"/><path fill="#FEFEFE" d="M486.52 694.564C494.229 694.282 503.428 696.414 507.724 703.435C510.241 707.549 504.449 709.841 501.814 710.932C499.739 708.926 495.444 704.349 492.711 703.824C489.216 703.152 481.571 704.588 480.655 708.784C481.516 716.647 501.688 716.757 506.844 722.934C517.543 735.753 503.624 747.282 490.457 747.599C487.739 747.562 485.044 747.106 482.465 746.246C473.054 743.05 462.682 734.518 478.12 729.633C480.845 735.066 483.584 738.256 490.162 738.327C494.709 738.377 500.979 736.962 500.644 731.256C494.535 721.887 475.311 729.506 470.101 709.265C472.667 700.145 477.668 696.793 486.52 694.564Z"/><path fill="#FEFEFE" d="M389.204 682.222L397.359 682.418L397.46 695.48L408.591 695.559L408.575 704.524L397.507 704.576C397.512 712.651 395.14 729.811 400.481 735.061C403.392 737.922 406.153 737.507 409.86 737.5C409.914 739.638 410.298 744.903 409.369 746.458C407.419 746.606 405.464 746.662 403.509 746.628C382.822 746.166 386.765 718.755 387.301 704.767C377.802 705.065 377.891 704.949 377.946 695.472L387.357 695.452C387.28 692.716 386.793 684.878 387.871 682.57L389.204 682.222Z"/><path fill="#FEFEFE" d="M694.723 701.787C701.594 695.303 704.493 695.252 713.575 695.576C713.87 698.662 713.622 701.503 713.466 704.596C700.632 704.145 696.436 707.723 695.159 720.418L695.044 745.974L685.11 745.998C684.411 730.697 684.87 711.144 684.996 695.518L694.538 695.633C694.725 697.646 694.7 699.758 694.723 701.787Z"/></svg>